HIERARCHY
ROOT Pelvis
{
	OFFSET 0.000000 0.000000 0.000000
	CHANNELS 6 Xposition Yposition Zposition Xrotation Yrotation Zrotation
	JOINT LeftUpLeg_virtual
	{
		OFFSET 0.000000 0.000000 0.000000
		CHANNELS 3 Xrotation Yrotation Zrotation
		JOINT LeftUpLeg
		{
			OFFSET 18.735201 -5.666702 -4.541200
			CHANNELS 3 Xrotation Yrotation Zrotation
			JOINT LeftLeg
			{
				OFFSET -0.021200 -31.938179 0.493100
				CHANNELS 3 Xrotation Yrotation Zrotation
				JOINT LeftFoot
				{
					OFFSET 0.021200 -31.938179 -4.336299
					CHANNELS 3 Xrotation Yrotation Zrotation
					JOINT LeftToeBase
					{
						OFFSET 0.943001 -26.722000 15.023500
						CHANNELS 3 Xrotation Yrotation Zrotation
						End Site
						{
							OFFSET 0 0 0
						}
					}
				}
			}
		}
	}
	JOINT RightUpLeg_virtual
	{
		OFFSET 0.000000 0.000000 0.000000
		CHANNELS 3 Xrotation Yrotation Zrotation
		JOINT RightUpLeg
		{
			OFFSET -18.735201 -5.666702 -4.541200
			CHANNELS 3 Xrotation Yrotation Zrotation
			JOINT RightLeg
			{
				OFFSET 0.018946 -31.938133 0.493100
				CHANNELS 3 Xrotation Yrotation Zrotation
				JOINT RightFoot
				{
					OFFSET -0.018946 -31.938126 -4.336299
					CHANNELS 3 Xrotation Yrotation Zrotation
					JOINT RightToeBase
					{
						OFFSET -0.943001 -26.722004 15.023500
						CHANNELS 3 Xrotation Yrotation Zrotation
						End Site
						{
							OFFSET 0 0 0
						}
					}
				}
			}
		}
	}
	JOINT Hips_virtual
	{
		OFFSET 0.000000 0.000000 0.000000
		CHANNELS 3 Xrotation Yrotation Zrotation
		JOINT Hips
		{
			OFFSET -0.000000 -0.000000 -0.000000
			CHANNELS 3 Xrotation Yrotation Zrotation
			JOINT Spine
			{
				OFFSET 0.000000 10.199997 -0.299500
				CHANNELS 3 Xrotation Yrotation Zrotation
				JOINT Spine1
				{
					OFFSET 0.000000 11.900002 -1.516600
					CHANNELS 3 Xrotation Yrotation Zrotation
					JOINT Spine2
					{
						OFFSET 0.000000 13.600006 -2.842500
						CHANNELS 3 Xrotation Yrotation Zrotation
						JOINT Neck_virtual
						{
							OFFSET 0.000000 0.000000 0.000000
							CHANNELS 3 Xrotation Yrotation Zrotation
							JOINT Neck
							{
								OFFSET 0.000000 9.624100 -2.890100
								CHANNELS 3 Xrotation Yrotation Zrotation
								JOINT Head
								{
									OFFSET 0.000000 14.068802 -1.351900
									CHANNELS 3 Xrotation Yrotation Zrotation
									End Site
									{
										OFFSET 0 0 0
									}
								}
							}
						}
						JOINT LeftShoulder_virtual
						{
							OFFSET 0.000000 0.000000 0.000000
							CHANNELS 3 Xrotation Yrotation Zrotation
							JOINT LeftShoulder
							{
								OFFSET 15.263000 10.923401 -0.547700
								CHANNELS 3 Xrotation Yrotation Zrotation
								JOINT LeftArm
								{
									OFFSET 25.438599 -2.830597 -13.032500
									CHANNELS 3 Xrotation Yrotation Zrotation
									JOINT LeftForeArm
									{
										OFFSET 29.960503 0.000000 0.000000
										CHANNELS 3 Xrotation Yrotation Zrotation
										JOINT LeftHand
										{
											OFFSET 27.849251 0.000000 0.000000
											CHANNELS 3 Xrotation Yrotation Zrotation
											End Site
											{
												OFFSET 0 0 0
											}
										}
									}
								}
							}
						}
						JOINT RightShoulder_virtual
						{
							OFFSET 0.000000 0.000000 0.000000
							CHANNELS 3 Xrotation Yrotation Zrotation
							JOINT RightShoulder
							{
								OFFSET -15.263000 10.923401 -0.547700
								CHANNELS 3 Xrotation Yrotation Zrotation
								JOINT RightArm
								{
									OFFSET -25.438599 -2.830597 -13.032500
									CHANNELS 3 Xrotation Yrotation Zrotation
									JOINT RightForeArm
									{
										OFFSET -29.960503 0.000000 0.000000
										CHANNELS 3 Xrotation Yrotation Zrotation
										JOINT RightHand
										{
											OFFSET -27.849251 0.000000 0.000000
											CHANNELS 3 Xrotation Yrotation Zrotation
											End Site
											{
												OFFSET 0 0 0
											}
										}
									}
								}
							}
						}
					}
				}
			}
		}
	}
}
MOTION
Frames: 10
Frame Time: 0.03333333
-3.449080 72.172356 17.853785 0.000000 0.000000 0.000000 15.026268 44.812161 -6.998117 -83.026174 -3.972225 -33.007719 60.658241 -49.240920 4.435543 9.196316 0.127517 -10.974581 0.000000 0.000000 0.000000 15.026268 44.812161 -6.998117 26.122460 -47.034827 10.054592 39.070974 15.574923 -8.116648 -25.762333 0.490946 -6.360715 0.000000 0.000000 0.000000 15.026268 44.812161 -6.998117 -0.000000 -0.000001 -0.000001 8.099647 9.365251 0.198243 2.381652 15.778977 -0.339810 0.000000 0.000000 0.000000 2.404006 15.779130 -0.339340 4.346227 -7.059115 0.089780 0.000000 0.000000 0.000000 2.404006 15.779130 -0.339340 3.133502 -2.562305 -3.584631 -38.240750 7.071614 -29.653567 51.130315 1.007872 17.797844 0.000000 0.000000 0.000000 2.404006 15.779130 -0.339340 -3.243328 8.889437 -18.987009 -18.337451 -10.441370 2.113095 -35.983431 12.714080 6.640593 0.000000 0.000000 0.000000 
-3.304784 72.429626 17.902521 0.000000 0.000000 0.000000 14.644059 43.407406 -6.696843 -82.787084 -4.158642 -32.233367 60.919290 -48.515612 4.365100 8.855327 0.112746 -10.662134 0.000000 0.000000 0.000000 14.644059 43.407406 -6.696843 24.612643 -45.956337 8.616045 39.588261 16.059988 -8.179134 -25.481149 0.168311 -6.646792 0.000000 0.000000 0.000000 14.644059 43.407406 -6.696843 0.000000 0.000000 0.000000 8.129241 9.271821 0.192695 2.453885 15.715422 -0.410864 0.000000 0.000000 0.000000 2.476208 15.715461 -0.410369 4.331493 -7.028224 0.166186 0.000000 0.000000 0.000000 2.476208 15.715461 -0.410369 3.030143 -2.053840 -3.444218 -34.893623 7.814703 -28.841416 51.215245 1.798527 17.534538 0.000000 0.000000 0.000000 2.476208 15.715461 -0.410369 -3.234084 9.381073 -18.988032 -20.179965 -10.125714 2.111668 -35.764780 13.521243 7.848389 0.000000 0.000000 0.000000 
-3.144405 72.706963 17.953293 0.000000 0.000000 0.000000 14.146407 41.842080 -6.309380 -82.456086 -4.325091 -31.350377 61.240692 -47.701672 4.278589 8.465400 0.092997 -10.324923 0.000000 0.000000 0.000000 14.146407 41.842080 -6.309380 23.062948 -44.748524 6.993188 39.944705 15.180447 -8.283291 -25.196701 1.055770 -6.123637 0.000000 0.000000 0.000000 14.146407 41.842080 -6.309380 0.000001 0.000000 0.000000 8.149609 9.168575 0.172624 2.510247 15.645952 -0.515675 0.000000 0.000000 0.000000 2.532586 15.646049 -0.515184 4.292643 -7.003610 0.285521 0.000000 0.000000 0.000000 2.532586 15.646049 -0.515184 2.904506 -1.393839 -3.364778 -31.432660 8.742964 -28.038408 51.355697 2.474099 17.546587 0.000000 0.000000 0.000000 2.532586 15.646049 -0.515184 -3.144798 9.710547 -18.951714 -22.316883 -9.294433 2.336561 -35.689152 13.933810 9.047905 0.000000 0.000000 0.000000 
-2.968975 72.997284 17.997709 0.000000 0.000000 0.000000 13.564061 40.190558 -5.870751 -82.045079 -4.498590 -30.432284 61.594742 -46.797355 4.192370 8.033753 0.068961 -9.992699 0.000000 0.000000 0.000000 13.564061 40.190558 -5.870751 21.588138 -43.517857 5.345714 40.462956 15.265775 -8.337258 -24.899960 1.146757 -6.026838 0.000000 0.000000 0.000000 13.564061 40.190558 -5.870751 0.000001 -0.000001 0.000000 8.181866 9.032520 0.151504 2.590916 15.519595 -0.627978 0.000000 0.000000 0.000000 2.613253 15.519675 -0.627485 4.194686 -6.974914 0.388644 0.000000 0.000000 0.000000 2.613253 15.519675 -0.627485 2.760276 -0.547893 -3.344336 -27.854194 9.898200 -27.279955 51.514376 3.115317 17.933608 0.000000 0.000000 0.000000 2.613253 15.519675 -0.627485 -3.150917 9.830083 -18.703800 -24.875213 -7.756479 2.628346 -35.412687 14.042538 10.178193 0.000000 0.000000 0.000000 
-2.785028 73.297127 18.020206 0.000000 0.000000 0.000000 12.962684 38.457971 -5.433471 -81.587996 -4.697662 -29.502725 61.941080 -45.800814 4.099784 7.578620 0.041283 -9.639963 0.000000 0.000000 0.000000 12.962684 38.457971 -5.433471 20.104040 -42.241971 3.667227 41.045680 15.367024 -8.413669 -24.608687 1.223893 -5.852590 0.000000 0.000000 0.000000 12.962684 38.457971 -5.433471 0.000000 0.000000 0.000000 8.236095 8.842979 0.139693 2.713040 15.294486 -0.723577 0.000000 0.000000 0.000000 2.735400 15.294624 -0.723103 3.991793 -6.922368 0.377727 0.000000 0.000000 0.000000 2.735400 15.294624 -0.723103 2.600922 -0.067472 -3.161115 -24.095449 12.170687 -26.669078 51.661177 3.695022 19.027304 0.000000 0.000000 0.000000 2.735400 15.294624 -0.723103 -3.339997 9.640841 -18.623119 -27.821731 -5.051712 3.806244 -31.427773 13.838942 9.620152 0.000000 0.000000 0.000000 
-2.599576 73.622086 18.021851 0.000000 0.000000 0.000000 12.417432 36.600272 -5.035614 -81.090041 -4.922057 -28.528428 62.225482 -44.719755 3.965098 7.111134 0.009488 -9.167465 0.000000 0.000000 0.000000 12.417432 36.600272 -5.035614 18.510520 -40.865555 1.979672 41.694333 15.432555 -8.564613 -24.299286 1.277727 -5.578583 0.000000 0.000000 0.000000 12.417432 36.600272 -5.035614 0.000000 0.000001 0.000000 8.314491 8.596766 0.164919 2.876769 14.970306 -0.744335 0.000000 0.000000 0.000000 2.899134 14.970427 -0.743858 3.672976 -6.827845 0.198215 0.000000 0.000000 0.000000 2.899134 14.970427 -0.743858 2.424719 0.585070 -3.033977 -20.214601 14.627094 -26.366998 51.808023 4.381861 20.064511 0.000000 0.000000 0.000000 2.899134 14.970427 -0.743858 -3.702868 9.074005 -19.067877 -31.284674 -1.979442 6.010691 -29.451554 13.480438 9.734789 0.000000 0.000000 0.000000 
-2.419325 73.987862 17.999611 0.000000 0.000000 0.000000 11.966325 34.562229 -4.676553 -80.529078 -5.146162 -27.446970 62.381853 -43.568421 3.747081 6.651990 -0.031139 -8.504102 0.000000 0.000000 0.000000 11.966325 34.562229 -4.676553 16.679653 -39.367322 0.159644 42.442737 15.533373 -8.685504 -23.950697 1.327765 -5.286003 0.000000 0.000000 0.000000 11.966325 34.562229 -4.676553 0.000001 0.000002 -0.000000 8.385015 8.311296 0.215546 3.019840 14.586178 -0.713343 0.000000 0.000000 0.000000 3.042197 14.586269 -0.712858 3.286805 -6.687008 -0.102948 0.000000 0.000000 0.000000 3.042197 14.586269 -0.712858 2.233192 1.185078 -2.877017 -16.282280 17.376524 -26.437297 51.977132 5.090873 20.952258 0.000000 0.000000 0.000000 3.042197 14.586269 -0.712858 -4.013843 8.182121 -19.576483 -34.919923 1.841185 8.631891 -27.706888 12.983146 9.732400 0.000000 0.000000 0.000000 
-2.248236 74.403511 17.955065 0.000000 0.000000 0.000000 11.588435 32.309889 -4.321149 -79.860129 -5.338404 -26.209236 62.390213 -42.348010 3.431403 6.199703 -0.085649 -7.628358 0.000000 0.000000 0.000000 11.588435 32.309889 -4.321149 14.613407 -37.688902 -1.765084 43.296668 15.630990 -8.821583 -23.556913 1.365767 -4.948180 0.000000 0.000000 0.000000 11.588435 32.309889 -4.321149 0.000000 -0.000002 0.000000 8.421920 8.020889 0.272344 3.090643 14.215102 -0.648842 0.000000 0.000000 0.000000 3.113027 14.215188 -0.648342 2.917426 -6.511729 -0.415294 0.000000 0.000000 0.000000 3.113027 14.215188 -0.648342 2.032841 2.042569 -2.769254 -12.439106 19.807661 -26.900311 52.208737 5.729161 21.575630 0.000000 0.000000 0.000000 3.113027 14.215188 -0.648342 -4.280431 7.096578 -20.193123 -38.687960 6.014423 11.826093 -26.099416 12.379073 9.536510 0.000000 0.000000 0.000000 
-2.093328 74.848068 17.861382 0.000000 0.000000 0.000000 11.222142 29.837910 -3.933520 -79.076495 -5.474989 -24.804525 62.281531 -41.043225 3.043982 5.755111 -0.157670 -6.622936 0.000000 0.000000 0.000000 11.222142 29.837910 -3.933520 11.997038 -37.181945 -4.566259 44.547768 16.642579 -8.979487 -23.099771 2.062443 -4.887106 0.000000 0.000000 0.000000 11.222142 29.837910 -3.933520 -0.000001 -0.000002 -0.000000 8.406412 7.751881 0.333872 3.063975 13.894983 -0.619704 0.000000 0.000000 0.000000 3.086335 13.895104 -0.619228 2.625224 -6.316719 -0.642578 0.000000 0.000000 0.000000 3.086335 13.895104 -0.619228 1.811001 2.620165 -2.593529 -8.621563 22.560620 -28.027871 52.350118 6.494739 22.788105 0.000000 0.000000 0.000000 3.086335 13.895104 -0.619228 -4.352361 6.217262 -20.242292 -42.057505 10.371728 15.398672 -24.215775 11.405357 8.907381 0.000000 0.000000 0.000000 
-1.952931 75.324203 17.734827 0.000000 0.000000 0.000000 10.809001 27.156393 -3.487827 -78.137146 -5.576536 -23.270292 62.119771 -39.609968 2.647004 5.257391 -0.242710 -5.565547 0.000000 0.000000 0.000000 10.809001 27.156393 -3.487827 9.870333 -33.920772 -5.979734 45.638272 15.938972 -9.189114 -22.761949 1.518781 -4.198367 0.000000 0.000000 0.000000 10.809001 27.156393 -3.487827 -0.000001 0.000001 0.000000 8.389685 7.548065 0.374026 3.032077 13.705767 -0.588833 0.000000 0.000000 0.000000 3.054454 13.705871 -0.588342 2.429526 -6.084080 -0.726835 0.000000 0.000000 0.000000 3.054454 13.705871 -0.588342 1.581666 3.281546 -2.409853 -4.972778 24.901232 -29.550499 52.600875 7.124040 23.806556 0.000000 0.000000 0.000000 3.054454 13.705871 -0.588342 -4.462582 5.431267 -19.268312 -45.148490 13.651413 18.801853 -21.844893 12.742654 8.957188 0.000000 0.000000 0.000000 
